007 Quantum[1080p] Español Latino. Sh3rl0ck.m2ts
Audio: Español Latino
Sh3rl0ck

   General #1
      Format : BDAV
      Format/Info : Blu-ray Video
      File size : 4.00 GiB
      Duration : 1h 46mn
      Overall bit rate mode : Variable
      Overall bit rate : 5 389 Kbps
      Maximum Overall bit rate : 35.5 Mbps
   Video #4113
      ID : 4113 (0x1011)
      Menu ID : 1 (0x1)
      Format : AVC
      Format/Info : Advanced Video Codec
      Format profile : High@L4.0
      Format settings, CABAC : Yes
      Format settings, ReFrames : 3 frames
      Codec ID : 27
      Duration : 1h 46mn
      Bit rate mode : Variable
      Bit rate : 4 700 Kbps
      Maximum bit rate : 25.0 Mbps
      Width : 1 920 pixels
      Height : 1 080 pixels
      Display aspect ratio : 16:9
      Frame rate : 23.976 fps
      Color space : YUV
      Chroma subsampling : 4:2:0
      Bit depth : 8 bits
      Scan type : Progressive
      Bits/(Pixel*Frame) : 0.095
      Stream size : 3.55 GiB (89%)
      Writing library : x264 core 114 r1924 08d04a4
      ID : 4352 (0x1100)
      Menu ID : 1 (0x1)
      Format : AC-3
      Format/Info : Audio Coding 3
      Mode extension : CM (complete main)
      Codec ID : 129
      Duration : 1h 46mn
      Bit rate mode : Constant
      Bit rate : 384 Kbps
      Channel(s) : 6 channels
      Channel positions : Front: L C R, Side: L R, LFE
      Sampling rate : 48.0 KHz
      Bit depth : 16 bits
      Compression mode : Lossy
      Delay relative to video : 800ms
      Stream size : 291 MiB (7%)